<svg width="163" height="243" viewBox="0 0 163 243" fill="none" xmlns="http://www.w3.org/2000/svg">
<path d="M2.26389 242.236L0 83.7639L49.8056 172.056V242.236H2.26389Z" fill="#AC00FB"/>
<path d="M92.8195 242.236L61.125 190.167L33.9584 151.681L101.875 144.889L115.458 169.792L160.736 242.236H92.8195Z" fill="#AC00FB"/>
<path d="M81.4604 0C36.4472 0 0 36.0906 0 80.5769C0 111.533 39.3822 165.212 63.3975 195.095C71.3223 205.003 85.8845 206.634 95.8614 198.796C97.2291 197.721 98.4761 196.488 99.6025 195.095C123.618 165.253 163 111.533 163 80.5769C162.92 36.0906 126.476 0 81.4604 0ZM81.4604 112.528C63.6399 112.528 49.1984 98.2428 49.1572 80.6156C49.117 62.9883 63.5987 48.6627 81.4193 48.6627C99.2398 48.6627 113.723 62.9476 113.723 80.5748C113.723 98.242 99.281 112.528 81.4604 112.528Z" fill="#FCC02E"/>
</svg>
